<svg id="Capa_1" enable-background="new 0 0 512 512" height="512" viewBox="0 0 512 512" width="512" xmlns="http://www.w3.org/2000/svg"><g><g><path d="m336.869 429.586h-43.783c17.069 0 30.905-13.837 30.905-30.905 0-17.069-13.837-30.905-30.905-30.905h-262.181c-17.068-.001-30.905 13.836-30.905 30.904 0 17.069 13.837 30.905 30.905 30.905h89.626c-22.758 0-41.207 18.449-41.207 41.207 0 22.758 18.449 41.207 41.207 41.207h216.338c22.758 0 41.207-18.449 41.207-41.207 0-22.757-18.449-41.206-41.207-41.206z" fill="#fff1ce"/></g><g><path d="m336.872 429.586h-102.763c-17.069 0-30.905-13.837-30.905-30.905 0-17.069 13.837-30.905 30.905-30.905h-203.204c-17.068-.001-30.905 13.836-30.905 30.904 0 17.069 13.837 30.905 30.905 30.905h89.626c-22.758 0-41.207 18.449-41.207 41.207 0 22.758 18.449 41.207 41.207 41.207h216.338c22.758 0 41.207-18.449 41.207-41.207 0-22.757-18.447-41.205-41.204-41.206z" fill="#ffe1bd"/></g><g><path d="m481.095 61.811h-89.626c22.758 0 41.207 18.449 41.207 41.207 0 22.758-18.449 41.207-41.207 41.207h-89.111c17.069 0 30.905 13.837 30.905 30.905 0 17.069-13.837 30.905-30.905 30.905h-165.859c-17.069 0-30.905-13.837-30.905-30.905 0-17.069 13.837-30.905 30.905-30.905h-95.292c-22.758 0-41.207-18.449-41.207-41.207 0-22.758 18.449-41.207 41.207-41.207h136.499c-17.069 0-30.905-13.837-30.905-30.905 0-17.069 13.837-30.906 30.905-30.906h303.388c17.069 0 30.906 13.837 30.906 30.905 0 17.069-13.837 30.906-30.905 30.906z" fill="#fff1ce"/></g><g><path d="m481.095 61.811h-89.626-157.103c-22.758 0-41.207 18.449-41.207 41.207 0 22.758 18.449 41.207 41.207 41.207h67.992c17.069 0 30.905 13.837 30.905 30.905s-13.837 30.905-30.905 30.905h-165.859c-17.069 0-30.905-13.837-30.905-30.905s13.837-30.905 30.905-30.905h-95.292c-22.758 0-41.207-18.449-41.207-41.207s18.449-41.207 41.207-41.207h136.499c-17.069 0-30.905-13.837-30.905-30.905s13.837-30.906 30.905-30.906h303.388c17.069 0 30.906 13.837 30.906 30.905s-13.837 30.906-30.905 30.906z" fill="#ffe1bd"/></g><g fill="#3b4456"><path d="m294.55 100.078c-8.668 0-16.911 3.754-22.615 10.3-2.722 3.123-2.396 7.86.727 10.582 3.124 2.72 7.858 2.395 10.582-.727 2.854-3.276 6.976-5.155 11.307-5.155s8.453 1.879 11.308 5.155c1.483 1.701 3.564 2.572 5.657 2.572 1.748 0 3.504-.607 4.925-1.846 3.122-2.722 3.448-7.459.727-10.582-5.706-6.545-13.949-10.299-22.618-10.299z"/><path d="m244.337 83.948-24.791-6.643c-3.996-1.073-8.113 1.302-9.186 5.303-1.072 4.001 1.303 8.114 5.304 9.186l7.53 2.018c-.304.815-.478 1.693-.478 2.614v10.679c0 4.143 3.358 7.5 7.5 7.5s7.5-3.357 7.5-7.5v-9.402l2.738.734c.65.175 1.303.258 1.946.258 3.311 0 6.342-2.21 7.24-5.561 1.072-4.001-1.302-8.114-5.303-9.186z"/><path d="m378.74 82.608c-1.071-4-5.185-6.379-9.186-5.303l-24.792 6.643c-4.001 1.071-6.375 5.185-5.303 9.186.897 3.351 3.928 5.561 7.239 5.561.643 0 1.296-.083 1.946-.258l2.738-.734v9.402c0 4.143 3.357 7.5 7.5 7.5s7.5-3.357 7.5-7.5v-10.679c0-.921-.174-1.799-.478-2.614l7.531-2.018c4.003-1.071 6.378-5.185 5.305-9.186z"/></g><g><g><path d="m164.367 480.794c-4.142 0-7.5-3.357-7.5-7.5v-12.361c0-4.143 3.358-7.5 7.5-7.5s7.5 3.357 7.5 7.5v12.361c0 4.143-3.358 7.5-7.5 7.5z" fill="#3b4456"/></g><g><path d="m293.033 480.794c-4.143 0-7.5-3.357-7.5-7.5v-12.361c0-4.143 3.357-7.5 7.5-7.5s7.5 3.357 7.5 7.5v12.361c0 4.143-3.357 7.5-7.5 7.5z" fill="#3b4456"/></g><g><path d="m228.7 488.153c-8.667 0-16.91-3.754-22.615-10.299-2.722-3.122-2.396-7.86.726-10.581 3.123-2.723 7.86-2.398 10.582.726 2.855 3.275 6.977 5.154 11.307 5.154s8.452-1.879 11.308-5.155c2.723-3.121 7.459-3.447 10.582-.725s3.447 7.459.725 10.582c-5.705 6.544-13.948 10.298-22.615 10.298z" fill="#3b4456"/></g></g><g><g><path d="m425.326 439.905c-12.668 0-25.336-4.821-34.979-14.465-16.016-16.017-16.016-42.075-.001-58.09 13.398-13.397 35.197-13.395 48.594 0 11.302 11.303 11.302 29.693 0 40.996-2.93 2.928-7.678 2.928-10.607 0-2.929-2.93-2.929-7.678 0-10.607 5.454-5.453 5.454-14.328 0-19.781-7.547-7.549-19.829-7.549-27.38 0-10.166 10.166-10.166 26.708.001 36.876 13.44 13.438 35.31 13.438 48.746-.001 17.531-17.53 17.531-46.054 0-63.584-11.531-11.532-27.492-17.715-43.797-16.946-.117.005-.234.008-.353.008l-318.844-.063c-4.142-.001-7.5-3.359-7.499-7.502.001-4.141 3.359-7.498 7.5-7.498l318.675.063c20.443-.924 40.456 6.864 54.924 21.331 23.379 23.379 23.379 61.42 0 84.799-9.644 9.643-22.312 14.464-34.98 14.464z" fill="#ffe1bd"/></g><g><path d="m247.901 293.022c-4.141 0-7.499-3.356-7.5-7.497-.001-4.143 3.355-7.502 7.498-7.503l69.91-.024h.003c4.142 0 7.499 3.356 7.5 7.497.001 4.143-3.355 7.502-7.497 7.503l-69.911.024z" fill="#ffe1bd"/></g><g><path d="m429.625 293.03c-1.071 0-2.141-.023-3.215-.071l-77.69.027c-.001 0-.002 0-.003 0-4.142 0-7.498-3.356-7.5-7.497-.001-4.143 3.355-7.502 7.497-7.503l77.862-.027h.005c.116 0 .232.003.349.008 16.306.753 32.267-5.414 43.798-16.946 17.531-17.53 17.531-46.054 0-63.584-13.439-13.439-35.309-13.438-48.746 0-4.926 4.925-7.638 11.473-7.638 18.438s2.712 13.513 7.638 18.438c7.547 7.549 19.829 7.549 27.38 0 2.642-2.642 4.097-6.154 4.097-9.891s-1.455-7.249-4.098-9.891c-2.929-2.93-2.929-7.678 0-10.607 2.93-2.928 7.678-2.928 10.607 0 11.302 11.303 11.302 29.693 0 40.996-13.399 13.396-35.198 13.394-48.594 0-16.015-16.016-16.015-42.074 0-58.09 19.289-19.287 50.673-19.287 69.96 0 23.38 23.379 23.38 61.42.001 84.799-13.708 13.706-32.394 21.4-51.71 21.401z" fill="#ffe1bd"/></g><g><path d="m163.279 293.031h-129.374c-4.142 0-7.5-3.357-7.5-7.5s3.358-7.5 7.5-7.5h129.374c7.228 0 13.108-5.881 13.108-13.108 0-15.498 12.609-28.107 28.108-28.107h128.769c4.143 0 7.5 3.357 7.5 7.5s-3.357 7.5-7.5 7.5h-128.769c-7.228 0-13.108 5.88-13.108 13.107 0 15.499-12.609 28.108-28.108 28.108z" fill="#ffe1bd"/></g></g></g></svg>