<svg id="color" enable-background="new 0 0 24 24" height="512" viewBox="0 0 24 24" width="512" xmlns="http://www.w3.org/2000/svg"><path d="m10 9-4 6h4l4-6zm8 0-4 6h4l4-6z" fill="#ffd54f"/><path d="m14 9-4 6h4l4-6zm-8 0v6l4-6zm16.25 0h-.25l-4 6h4.25c.96 0 1.75-.79 1.75-1.75v-2.5c0-.96-.79-1.75-1.75-1.75z" fill="#ffc107"/><path d="m12 12h-4l-2 3h4zm8 0h-4l-2 3h4z" fill="#deb945"/><path d="m8 12h-2v3zm8 0h-4l-2 3h4zm8 0h-4l-2 3h4.25c.96 0 1.75-.79 1.75-1.75z" fill="#dea806"/><path d="m6.25 21.5h-3.5c-.414 0-.75-.336-.75-.75v-12.25c0-1.378 1.122-2.5 2.5-2.5s2.5 1.122 2.5 2.5v12.25c0 .414-.336.75-.75.75z" fill="#90a4ae"/><path d="m7.25 24h-5.5c-.965 0-1.75-.785-1.75-1.75v-.5c0-.965.785-1.75 1.75-1.75h5.5c.965 0 1.75.785 1.75 1.75v.5c0 .965-.785 1.75-1.75 1.75z" fill="#607d8b"/><path d="m4.5 6c-1.378 0-2.5 1.122-2.5 2.5v11.5h2.5z" fill="#7d8f97"/><path d="m4.5 20h-2.5-.25c-.965 0-1.75.785-1.75 1.75v.5c0 .965.785 1.75 1.75 1.75h2.75z" fill="#546d79"/></svg>